<svg id="White" xmlns="http://www.w3.org/2000/svg" viewBox="0 0 591.62 468.53"><defs><style>.cls-1{font-size:69.17px;font-family:TimesNewRomanPS-BoldMT, Times New Roman;font-weight:700;}.cls-1,.cls-3{fill:#fff;}.cls-2{letter-spacing:-0.04em;}</style></defs><title>white-icon</title><text class="cls-1" transform="translate(362.15 293.23) scale(1.02 1)">EDAN</text><text class="cls-1" transform="translate(362.15 363.17) scale(1.02 1)">SHEL<tspan class="cls-2" x="184.54" y="0">F</tspan></text><path class="cls-3" d="M180.55,538.14s8.08,60.9,60.13,91.57a3.74,3.74,0,0,0,5.37-4.65c-7.07-16.66-18.32-52.39-7.5-93.34a4,4,0,0,0-1.39-4.21h0a38.4,38.4,0,0,0-56.61,10.63Z" transform="translate(-10.19 -161.72)"/><path class="cls-3" d="M145,416.63s-28.62,31.65-36.76,75.6c-7.15,38.57,5.41,88,13.36,115.12a3.73,3.73,0,0,0,7.08.2c3.85-10.45,10.3-43.46,29.22-69.9,11.85-16.55,33.48-28.43,47.29-37.07a4,4,0,0,0,1.82-4h0c-1.51-9.69-8.91-32.17-18.63-48.06C175.21,427,163.61,416.05,145,416.63Z" transform="translate(-10.19 -161.72)"/><path class="cls-3" d="M115.52,454.71s-43.11,82-55.73,154.1c0,0-4.19,5.83-8.93,0S34.65,537,47,514.64s38.43-50.82,58.1-63.93C112.24,446.88,115.52,454.71,115.52,454.71Z" transform="translate(-10.19 -161.72)"/><path class="cls-3" d="M118,438C104.47,441.58,47.6,459.77,20,515.84a6.89,6.89,0,0,1-5.19,3.91c-2.43.31-5-.7-4.54-6.57.82-10.84,20.77-82.87,41.17-102.91,17.47-17.16,54.7-42.06,75.11-53.67A7.26,7.26,0,0,1,137.28,362c1.94,13.92,2.36,41.05-14.68,72.39A7.4,7.4,0,0,1,118,438Z" transform="translate(-10.19 -161.72)"/><path class="cls-3" d="M136.77,348.1a6.3,6.3,0,0,1-6.12,4.78c-14.16,0-55.43,1.7-76.45,19.62C28.58,394.36,17.29,406,17.29,406s-8.5,5.22-6.2-4.49c3.52-9.11,28.54-73.47,59.14-97.27s77.71-45.66,77.71-45.66,9.52-5.83,8.65,3.89C155.85,270.76,141.13,330.51,136.77,348.1Z" transform="translate(-10.19 -161.72)"/><path class="cls-3" d="M136.32,161.81a8.06,8.06,0,0,0-4.41,1.53c-10.41,7.55-59.38,43.77-68.48,63.93-10.2,22.59-26.72,71.65-26.72,79.91s5.68,8.74,10.78,0S69.26,278,81.28,271.11,144.12,246,181.46,240.87c34.63-4.73,64.09-4,88.23,1.25a8.05,8.05,0,0,0,8.69-3.89,36.85,36.85,0,0,0,1.62-34.7C269.67,180.56,174,160.25,136.32,161.81Z" transform="translate(-10.19 -161.72)"/><path class="cls-3" d="M378.38,534.4a11.16,11.16,0,0,1-11.16-11.15l-.08-111.33a11.18,11.18,0,0,1,11.19-11.18H527a1.21,1.21,0,0,0,1.2-1.25c0-1.1.11-2.22.11-3.89,0-1.84-1.82-2.63-3.19-3.91-11.7-11.24-28.12-17.38-49.41-22.8q30.61-11.82,46.29-36.13t15.66-55.16q0-36-20-63.64t-57.9-38.52q-25-7.27-66.49-7.28H245.2v11.19h12.87q19.47,0,29.33,13.3,7.32,10,7.34,48.08v17.09a41.91,41.91,0,0,1-15.47,3.09c-20.23.2-84.32-10-104,4.36s-34.59,45.18-33.13,135.15c0,0,42.6,11.67,52.82,34.61s18.2,57.56,21.48,72.86c0,0,18,16.78,45.18,16.23,13.12-.28,24.45-.28,32.61-.22-.82,12.81-2.56,21.71-5.3,26.65-6.22,10.87-16.53,16.32-30.85,16.32H245.2v11.19H407q57.87,0,86.06-12.84c13.24-6,29.92-16.37,33.76-21.74,0-5.24-.56-4.1-.56-9.08Zm-35.1-339.33q20.25-6.63,45.51-6.65,47,0,71.54,25.4t24.52,61.35A94.45,94.45,0,0,1,475,318.09q-9.88,19.65-28.45,29.2t-55.47,9.5q-14.43,0-26.43-1.06a164.75,164.75,0,0,1-21.37-3.17Zm-155.81,115c2-11.81,20.46-18.52,41.24-15s36,15.92,34,27.74-20.46,18.52-41.23,15S185.47,321.92,187.47,310.1ZM231,443.71c-3.17,1.71-7.36,1.71-11.36-5.14-3.54-10.1-4.25-20.4-4.51-28.19-.22-7.48-7.59-31.36-35.75-43.92a9.34,9.34,0,0,1-5.11-6c-1.4-4.85-1.31-11.62,10.67-10.56a12.58,12.58,0,0,1,4.63,1.37c21.74,11.38,32.47,23.74,35.89,30.93A103.84,103.84,0,0,1,235,414.52a160.53,160.53,0,0,1,1.43,19.32A11,11,0,0,1,231,443.71Zm69.74-37.44c.37,11,.6,35.41-2.31,48.08a42.57,42.57,0,0,1-3.65,9.73c-4.71,9.22-12.27,17.07-17.84,17.13a59.52,59.52,0,0,0-20.32,4.48,20.55,20.55,0,0,1-10.38,1.08c-16.47-8.5-8.16-17.35-4.91-20s16.18-4.74,26.62-5.22,12.5-14.44,12.5-14.44-.23-28.54-.48-36.44c-13.1-10.08-15.41-15.93-20-22.6s-3.63-18.44-1.95-20.75,12.87-10.44,22.12-12.64c6.71-1.57,11.41.54,14.67,3.54a24.51,24.51,0,0,1,6.19,10.3S300.33,395.23,300.7,406.27ZM401.18,556.6a214.83,214.83,0,0,1-57.9-8.16V380.36a115.74,115.74,0,0,1,18-2.11q11.13-.6,26.79-.6c24.12,0,44.27,2,60.59,10.5,2.2,1.11,4.28,2.31,6.31,3.54H368.11A11.15,11.15,0,0,0,357,402.85L357,532.32a11.16,11.16,0,0,0,11.16,11.16h73.62C426.48,554.84,420.73,555.51,401.18,556.6Z" transform="translate(-10.19 -161.72)"/><ellipse class="cls-3" cx="225.08" cy="316.48" rx="14.4" ry="30.16" transform="translate(-134.77 323.76) rotate(-80.38)"/><path class="cls-3" d="M179.91,362.09l-.73-.94h0a5.35,5.35,0,0,1,6-5.3l.23,0a4.36,4.36,0,0,1,1.23.36,124.17,124.17,0,0,1,24.8,15.61,37.31,37.31,0,0,1,8.08,9.19,81.33,81.33,0,0,1,8.93,19.76,29.78,29.78,0,0,1,1,6.23c.42,6.85,1.09,19.65,1.35,24.56a12.09,12.09,0,0,1-.43,3.92l-.2.71a3.37,3.37,0,0,1-6.2.71l-1-1.9a6.33,6.33,0,0,1-.78-2.95c-.05-3.74.67-14.61-3.35-27.77-5.17-16.9-9.66-27.76-37.2-40.82A4.77,4.77,0,0,1,179.91,362.09Z" transform="translate(-10.19 -161.72)"/><path class="cls-3" d="M278.3,360.54s-13,8.63-13.57,10-2.12,1.52.42,9.41,5.09,17.49,20.26,30v32.66s-1.81,24.89-21,27.81c-12.73,0-16.55,1.21-17.82,4.25s2.76,7.28,9.12,5.83,14.74-4.86,22-6.2,16.22-22.34,16.22-28.17V370.93s.64-9.72-7.42-10.93S278.3,360.54,278.3,360.54Z" transform="translate(-10.19 -161.72)"/></svg>